<?xml version="1.0" encoding="UTF-8" standalone="no"?>
<!DOCTYPE svg PUBLIC "-//W3C//DTD SVG 1.1//EN" "http://www.w3.org/Graphics/SVG/1.1/DTD/svg11.dtd">
<svg version="1.1" xmlns="http://www.w3.org/2000/svg" xmlns:xlink="http://www.w3.org/1999/xlink" preserveAspectRatio="xMidYMid meet" viewBox="0 0 640 640" width="640" height="640"><defs><path d="M314.55 119.14C326.88 131.47 425.48 230.08 437.81 242.4C442.55 249.51 442.55 261.36 437.81 266.11C433.07 273.22 421.22 273.22 414.11 266.11C406.68 258.68 369.54 221.54 302.7 154.7C235.85 222.96 198.72 260.89 191.29 268.48C186.55 273.22 174.7 273.22 169.96 268.48C162.85 261.36 162.85 251.88 169.96 244.77C182.28 232.45 278.76 133.84 291.09 121.51C291.09 116.77 297.96 114.4 302.7 114.4C307.44 114.4 312.18 116.77 314.55 119.14Z" id="eGidwul2j"></path><path d="M296.3 518.78C283.97 506.45 185.36 407.84 173.04 395.52C168.3 388.41 168.3 376.56 173.04 371.81C177.78 364.7 189.63 364.7 196.74 371.81C204.17 379.24 241.3 416.38 308.15 483.22C374.99 416.38 412.13 379.24 419.56 371.81C426.67 364.7 436.15 364.7 443.26 371.81C450.37 378.93 450.37 388.41 443.26 395.52C430.93 407.84 332.33 506.45 320 518.78C317.63 521.15 312.89 523.52 308.15 523.52C303.41 523.52 298.67 521.15 296.3 518.78Z" id="avgbxTfVH"></path></defs><g><g><g><use xlink:href="#eGidwul2j" opacity="1" fill="#8ac44a" fill-opacity="1"></use><g><use xlink:href="#eGidwul2j" opacity="1" fill-opacity="0" stroke="#000000" stroke-width="1" stroke-opacity="0"></use></g></g><g><use xlink:href="#avgbxTfVH" opacity="1" fill="#8ac44a" fill-opacity="1"></use><g><use xlink:href="#avgbxTfVH" opacity="1" fill-opacity="0" stroke="#000000" stroke-width="1" stroke-opacity="0"></use></g></g></g></g></svg>