<?xml version="1.0" encoding="UTF-8"?>
<svg width="27px" height="27px" viewBox="0 0 27 27" version="1.1" xmlns="http://www.w3.org/2000/svg" xmlns:xlink="http://www.w3.org/1999/xlink">
    <!-- Generator: Sketch 52.6 (67491) - http://www.bohemiancoding.com/sketch -->
    <title>Group 6</title>
    <desc>Created with Sketch.</desc>
    <defs>
        <polygon id="path-1" points="0 0.166117647 26.8337176 0.166117647 26.8337176 27 0 27"></polygon>
    </defs>
    <g id="Welcome" stroke="none" stroke-width="1" fill="none" fill-rule="evenodd">
        <g id="6-Feedback-Log" transform="translate(-46.000000, -184.000000)">
            <g id="Group-6" transform="translate(46.000000, 184.000000)">
                <g id="Group-3">
                    <mask id="mask-2" fill="white">
                        <use xlink:href="#path-1"></use>
                    </mask>
                    <g id="Clip-2"></g>
                    <path d="M13.4167765,27.0006588 C9.15748235,27.0006588 5.24242353,25.0340706 2.67630588,21.6032471 C0.925482353,19.2611294 -0.000164705882,16.4874824 -0.000164705882,13.5837176 C-0.000164705882,6.18348235 6.01983529,0.165129412 13.4167765,0.165129412 C15.9450118,0.165129412 18.4172471,0.884894118 20.5683059,2.24371765 C24.4916,4.72254118 26.8337176,8.96207059 26.8337176,13.5837176 C26.8337176,20.9823059 20.8153647,27.0006588 13.4167765,27.0006588" id="Fill-1" fill="#8BBF52" mask="url(#mask-2)"></path>
                </g>
                <path d="M11.7697262,21 C11.7504606,21 11.734406,21 11.7151405,20.9982811 C11.2254744,20.9742158 10.796816,20.6390208 10.6266369,20.1474014 L8.07395169,12.7095103 C7.84437056,12.0339634 8.16706851,11.2862207 8.79640978,11.0369731 C9.42896198,10.7911635 10.1273381,11.1366722 10.3585247,11.8105001 L11.907796,16.3244594 L15.6838436,7.74690527 C15.9680104,7.0954237 16.692074,6.816954 17.3021497,7.12636478 C17.9090145,7.4306187 18.1690994,8.20758353 17.8849326,8.8590651 L12.869468,20.2522573 C12.6687852,20.7094977 12.2385212,21 11.7697262,21" id="Fill-4" fill="#FEFEFE"></path>
            </g>
        </g>
    </g>
</svg>